<?xml version="1.0" standalone="no"?><svg xmlns="http://www.w3.org/2000/svg" viewBox="0 0 1440 320"><path fill="#07316bcb" fill-opacity="1" d="M0,0L30,37.3C60,75,120,149,180,197.3C240,245,300,267,360,245.3C420,224,480,160,540,128C600,96,660,96,720,96C780,96,840,96,900,112C960,128,1020,160,1080,181.3C1140,203,1200,213,1260,197.3C1320,181,1380,139,1410,117.3L1440,96L1440,0L1410,0C1380,0,1320,0,1260,0C1200,0,1140,0,1080,0C1020,0,960,0,900,0C840,0,780,0,720,0C660,0,600,0,540,0C480,0,420,0,360,0C300,0,240,0,180,0C120,0,60,0,30,0L0,0Z"></path></svg>