<?xml version="1.0" standalone="no"?><svg xmlns="http://www.w3.org/2000/svg" viewBox="0 0 1440 320"><path fill="#07316bcb" fill-opacity="1" d="M0,224L30,208C60,192,120,160,180,128C240,96,300,64,360,74.7C420,85,480,139,540,154.7C600,171,660,149,720,165.3C780,181,840,235,900,240C960,245,1020,203,1080,160C1140,117,1200,75,1260,90.7C1320,107,1380,181,1410,218.7L1440,256L1440,0L1410,0C1380,0,1320,0,1260,0C1200,0,1140,0,1080,0C1020,0,960,0,900,0C840,0,780,0,720,0C660,0,600,0,540,0C480,0,420,0,360,0C300,0,240,0,180,0C120,0,60,0,30,0L0,0Z"></path></svg>